<svg width="100%" height="100%" id="svg" viewBox="0 0 1440 490" xmlns="http://www.w3.org/2000/svg" class="transition duration-300 ease-in-out delay-150"><path d="M 0,500 C 0,500 0,166 0,166 C 150.40000000000003,177.60000000000002 300.80000000000007,189.20000000000002 468,203 C 635.1999999999999,216.79999999999998 819.2,232.8 984,227 C 1148.8,221.2 1294.4,193.6 1440,166 C 1440,166 1440,500 1440,500 Z" stroke="none" stroke-width="0" fill="#b2a4ff" fill-opacity="0.53" class="transition-all duration-300 ease-in-out delay-150 path-0"></path><path d="M 0,500 C 0,500 0,333 0,333 C 124.66666666666663,302.4666666666667 249.33333333333326,271.93333333333334 403,277 C 556.6666666666667,282.06666666666666 739.3333333333335,322.73333333333335 917,338 C 1094.6666666666665,353.26666666666665 1267.3333333333333,343.1333333333333 1440,333 C 1440,333 1440,500 1440,500 Z" stroke="none" stroke-width="0" fill="#b2a4ff" fill-opacity="1" class="transition-all duration-300 ease-in-out delay-150 path-1"></path></svg>