<?xml version="1.0" standalone="no"?>
<svg xmlns:xlink="http://www.w3.org/1999/xlink" id="wave" style="transform:rotate(0deg); transition: 0.3s" viewBox="0 0 1440 490" version="1.1" xmlns="http://www.w3.org/2000/svg"><defs><linearGradient id="sw-gradient-0" x1="0" x2="0" y1="1" y2="0"><stop stop-color="rgba(178, 164, 255, 1)" offset="0%"/><stop stop-color="rgba(178, 164, 255, 1)" offset="100%"/></linearGradient></defs><path style="transform:translate(0, 0px); opacity:1" fill="url(#sw-gradient-0)" d="M0,147L60,187.8C120,229,240,310,360,302.2C480,294,600,196,720,179.7C840,163,960,229,1080,253.2C1200,278,1320,261,1440,220.5C1560,180,1680,114,1800,73.5C1920,33,2040,16,2160,16.3C2280,16,2400,33,2520,40.8C2640,49,2760,49,2880,81.7C3000,114,3120,180,3240,228.7C3360,278,3480,310,3600,285.8C3720,261,3840,180,3960,155.2C4080,131,4200,163,4320,147C4440,131,4560,65,4680,98C4800,131,4920,261,5040,318.5C5160,376,5280,359,5400,343C5520,327,5640,310,5760,326.7C5880,343,6000,392,6120,392C6240,392,6360,343,6480,269.5C6600,196,6720,98,6840,73.5C6960,49,7080,98,7200,171.5C7320,245,7440,343,7560,318.5C7680,294,7800,147,7920,98C8040,49,8160,98,8280,155.2C8400,212,8520,278,8580,310.3L8640,343L8640,490L8580,490C8520,490,8400,490,8280,490C8160,490,8040,490,7920,490C7800,490,7680,490,7560,490C7440,490,7320,490,7200,490C7080,490,6960,490,6840,490C6720,490,6600,490,6480,490C6360,490,6240,490,6120,490C6000,490,5880,490,5760,490C5640,490,5520,490,5400,490C5280,490,5160,490,5040,490C4920,490,4800,490,4680,490C4560,490,4440,490,4320,490C4200,490,4080,490,3960,490C3840,490,3720,490,3600,490C3480,490,3360,490,3240,490C3120,490,3000,490,2880,490C2760,490,2640,490,2520,490C2400,490,2280,490,2160,490C2040,490,1920,490,1800,490C1680,490,1560,490,1440,490C1320,490,1200,490,1080,490C960,490,840,490,720,490C600,490,480,490,360,490C240,490,120,490,60,490L0,490Z"/></svg>